<mxfile host="app.diagrams.net" modified="2023-03-04T14:08:04.853Z" agent="5.0 (X11)" etag="xZWXl7b_t016rFqFUmcK" version="21.0.2" type="github">
  <diagram name="Seite-1" id="wkQMpT6iIEVjJQEx3GDW">
    <mxGraphModel dx="880" dy="406" grid="1" gridSize="10" guides="1" tooltips="1" connect="1" arrows="1" fold="1" page="1" pageScale="1" pageWidth="827" pageHeight="1169" math="0" shadow="0">
      <root>
        <mxCell id="0" />
        <mxCell id="1" parent="0" />
        <mxCell id="ZHiQiYsTTJC8IIRNRTqC-1" value="Actor" style="shape=umlActor;verticalLabelPosition=bottom;verticalAlign=top;html=1;outlineConnect=0;" vertex="1" parent="1">
          <mxGeometry x="120" y="110" width="30" height="60" as="geometry" />
        </mxCell>
        <mxCell id="ZHiQiYsTTJC8IIRNRTqC-4" value="" style="whiteSpace=wrap;html=1;aspect=fixed;" vertex="1" parent="1">
          <mxGeometry x="270" y="55" width="245" height="245" as="geometry" />
        </mxCell>
      </root>
    </mxGraphModel>
  </diagram>
</mxfile>
